{"title":"The Trojan Horse 2008 Miniserie DVDrip 2 parts English Klam","uid":6445825,"size":2924738712,"categoryP":"video","categoryS":"movies","magnet":"?xt=urn:btih:3250d693fbd207efd0c5f7391b350fdeea74e06d&amp;dn=The+Trojan+Horse+2008+Miniserie+DVDrip+2+parts+English+Klam&amp;tr=udp%3A%2F%2Ftracker.openbittorrent.com%3A80&amp;tr=udp%3A%2F%2Fopen.demonii.com%3A1337&amp;tr=udp%3A%2F%2Ftracker.coppersurfer.tk%3A6969&amp;tr=udp%3A%2F%2Fexodus.desync.com%3A6969","seeders":0,"leechers":1,"uploader":"Klambake","files":-1,"time":1307282576,"description":"(H2O) With: Tom Skerritt, Greta Scacchi and Stephen McHattie\n\nJournaliste Helen Madigan onderzoekt de moord op een computerspecialist die een computerprogramma heeft geschreven waarmee verkiezingen kunnen worden gemanipuleerd. Al snel wordt ook zij achternagezeten door moordenaars, die lijken te werken voor een alliantie van geheime diensten. Vreemd genoeg blijkt het computerprogramma de naam te bevatten van Tom McLaughlin, die de laatste premier van Canada was voordat dit land opging in de Verenigde Staten.\n\nWhen Canada dissolves its sovereignty and merges with the United States, disgruntled former Prime Minister Tom McLaughlin schemes to subvert American politics from the inside out by running as the next presidential candidate. But first he will have to deal with the conniving incumbent President Stanfield and a pesky British journalist that is on to his game.\n &lt;a href=&quot;\nhttp://www.imdb.com/title/&quot; rel=&quot;nofollow&quot; target=&quot;_NEW&quot;&gt;\nhttp://www.imdb.com/title/&lt;/a&gt;\thttp://bayimg.com/\nGeneral:\n\nComplete name                    : H2O\\The Trojan Horse DVD01.avi\nFormat                           : AVI\nFormat/Info                      : Audio Video Interleave\nFile size                        : 1.36 GiB\nDuration                         : 1h 26mn\nOverall bit rate                 : 2 262 Kbps\n\nVideo:\n\nFormat                           : MPEG-4 Visual\nFormat profile                   : Simple@L3\nFormat settings, BVOP            : No\nFormat settings, QPel            : No\nFormat settings, GMC             : No warppoints\nFormat settings, Matrix          : Default (H.263)\nCodec ID                         : XVID\nCodec ID/Hint                    : XviD\nDuration                         : 1h 26mn\nBit rate                         : 1 804 Kbps\nWidth                            : 704 pixels\nHeight                           : 396 pixels\nDisplay aspect ratio             : 16:9\nFrame rate                       : 25.000 fps\nColor space                      : YUV\nChroma subsampling               : 4:2:0\nBit depth                        : 8 bits\nScan type                        : Progressive\nBits/(Pixel*Frame)               : 0.259\nStream size                      : 1.08 GiB (80%)\nWriting library                  : XviD 1.1.2 (UTC 2006-11-01)\n\nAudio:\n\nFormat                           : AC-3\nFormat/Info                      : Audio Coding 3\nMode extension                   : CM (complete main)\nCodec ID                         : 2000\nDuration                         : 1h 26mn\nBit rate mode                    : Constant\nBit rate                         : 448 Kbps\nChannel(s)                       : 6 channels\nChannel positions                : Front: L C R, Side: L R, LFE\nSampling rate                    : 48.0 KHz\nBit depth                        : 16 bits\nStream size                      : 276 MiB (20%)\nAlignment                        : Aligned on interleaves\nInterleave, duration             : 32 ms (0.80 video frame)\n\n","torrent":{"xt":"urn:btih:3250d693fbd207efd0c5f7391b350fdeea74e06d","amp;dn":"The+Trojan+Horse+2008+Miniserie+DVDrip+2+parts+English+Klam","amp;tr":["udp%3A%2F%2Ftracker.openbittorrent.com%3A80","udp%3A%2F%2Fopen.demonii.com%3A1337","udp%3A%2F%2Ftracker.coppersurfer.tk%3A6969","udp%3A%2F%2Fexodus.desync.com%3A6969"],"infoHash":"3250d693fbd207efd0c5f7391b350fdeea74e06d","infoHashBuffer":{"type":"Buffer","data":[50,80,214,147,251,210,7,239,208,197,247,57,27,53,15,222,234,116,224,109]},"announce":[],"urlList":[]}}